<svg xmlns="http://www.w3.org/2000/svg" viewBox="0 0 512 512">
  <defs>
    <linearGradient id="gradient" x1="0%" y1="0%" x2="100%" y2="100%">
      <stop offset="0%" style="stop-color:#8b5cf6;stop-opacity:1" />
      <stop offset="100%" style="stop-color:#7c3aed;stop-opacity:1" />
    </linearGradient>
  </defs>
  <circle cx="256" cy="256" r="240" fill="url(#gradient)"/>
  <g fill="white" transform="translate(128, 128) scale(0.5)">
    <path d="M256 48C141.31 48 48 141.31 48 256s93.31 208 208 208 208-93.31 208-208S370.69 48 256 48zm0 368c-88.22 0-160-71.78-160-160S167.78 96 256 96s160 71.78 160 160-71.78 160-160 160z"/>
    <path d="M256 136a24 24 0 00-24 24v72h-72a24 24 0 000 48h72v72a24 24 0 0048 0v-72h72a24 24 0 000-48h-72v-72a24 24 0 00-24-24z" transform="translate(0, -20)"/>
    <circle cx="256" cy="360" r="32"/>
  </g>
  <g fill="white" transform="translate(156, 156)">
    <path d="M100 40c-33.14 0-60 26.86-60 60v100c0 33.14 26.86 60 60 60h100c33.14 0 60-26.86 60-60V100c0-33.14-26.86-60-60-60H100zm0 20h100c22.09 0 40 17.91 40 40v100c0 22.09-17.91 40-40 40H100c-22.09 0-40-17.91-40-40V100c0-22.09 17.91-40 40-40z"/>
    <path d="M150 80c-38.66 0-70 31.34-70 70s31.34 70 70 70 70-31.34 70-70-31.34-70-70-70zm0 20c27.61 0 50 22.39 50 50s-22.39 50-50 50-50-22.39-50-50 22.39-50 50-50z"/>
    <circle cx="150" cy="150" r="25"/>
  </g>
</svg>
